HIERARCHY
ROOT Hips
{
	OFFSET 0.00000 0.00000 0.00000
	CHANNELS 6 Xposition Yposition Zposition Zrotation Yrotation Xrotation 
	JOINT LHipJoint
	{
		OFFSET 0 0 0
		CHANNELS 3 Zrotation Yrotation Xrotation
		JOINT LeftUpLeg
		{
			OFFSET 2.36090 -1.39315 1.24752
			CHANNELS 3 Zrotation Yrotation Xrotation
			JOINT LeftLeg
			{
				OFFSET 2.06810 -5.68207 0.00000
				CHANNELS 3 Zrotation Yrotation Xrotation
				JOINT LeftFoot
				{
					OFFSET 2.46631 -6.77613 0.00000
					CHANNELS 3 Zrotation Yrotation Xrotation
					JOINT LeftToeBase
					{
						OFFSET 0.26031 -0.71520 1.99545
						CHANNELS 3 Zrotation Yrotation Xrotation
						End Site
						{
							OFFSET 0.00000 -0.00000 1.05957
						}
					}
				}
			}
		}
	}
	JOINT RHipJoint
	{
		OFFSET 0 0 0
		CHANNELS 3 Zrotation Yrotation Xrotation
		JOINT RightUpLeg
		{
			OFFSET -2.25243 -1.39315 1.24752
			CHANNELS 3 Zrotation Yrotation Xrotation
			JOINT RightLeg
			{
				OFFSET -2.17343 -5.97145 0.00000
				CHANNELS 3 Zrotation Yrotation Xrotation
				JOINT RightFoot
				{
					OFFSET -2.52372 -6.93386 0.00000
					CHANNELS 3 Zrotation Yrotation Xrotation
					JOINT RightToeBase
					{
						OFFSET -0.22538 -0.61923 2.11447
						CHANNELS 3 Zrotation Yrotation Xrotation
						End Site
						{
							OFFSET -0.00000 -0.00000 1.10506
						}
					}
				}
			}
		}
	}
	JOINT LowerBack
	{
		OFFSET 0 0 0
		CHANNELS 3 Zrotation Yrotation Xrotation
		JOINT Spine
		{
			OFFSET 0.01594 2.13103 0.08007
			CHANNELS 3 Zrotation Yrotation Xrotation
			JOINT Spine1
			{
				OFFSET 0.01393 2.09723 0.18338
				CHANNELS 3 Zrotation Yrotation Xrotation
				JOINT Neck
				{
					OFFSET 0 0 0
					CHANNELS 3 Zrotation Yrotation Xrotation
					JOINT Neck1
					{
						OFFSET 0.05351 1.38915 0.32494
						CHANNELS 3 Zrotation Yrotation Xrotation
						JOINT Head
						{
							OFFSET 0.00711 1.45992 -0.21666
							CHANNELS 3 Zrotation Yrotation Xrotation
							End Site
							{
								OFFSET -0.00433 1.47702 -0.11056
							}
						}
					}
				}
				JOINT LeftShoulder
				{
					OFFSET 0 0 0
					CHANNELS 3 Zrotation Yrotation Xrotation
					JOINT LeftArm
					{
						OFFSET 2.87198 0.92249 0.11132
						CHANNELS 3 Zrotation Yrotation Xrotation
						JOINT LeftForeArm
						{
							OFFSET 5.52731 -0.00000 0.00000
							CHANNELS 3 Zrotation Yrotation Xrotation
							JOINT LeftHand
							{
								OFFSET 3.11059 -0.00000 0.00000
								CHANNELS 3 Zrotation Yrotation Xrotation
								JOINT LeftFingerBase
								{
									OFFSET 0 0 0
									CHANNELS 3 Zrotation Yrotation Xrotation
									JOINT LeftHandIndex1
									{
										OFFSET 0.41963 -0.00000 0.00000
										CHANNELS 3 Zrotation Yrotation Xrotation
										End Site
										{
											OFFSET 0.33831 -0.00000 0.00000
										}
									}
								}
								JOINT LThumb
								{
									OFFSET 0 0 0
									CHANNELS 3 Zrotation Yrotation Xrotation
									End Site
									{
										OFFSET 0.34348 -0.00000 0.34348
									}
								}
							}
						}
					}
				}
				JOINT RightShoulder
				{
					OFFSET 0 0 0
					CHANNELS 3 Zrotation Yrotation Xrotation
					JOINT RightArm
					{
						OFFSET -2.94710 0.68072 0.32187
						CHANNELS 3 Zrotation Yrotation Xrotation
						JOINT RightForeArm
						{
							OFFSET -5.25396 -0.00000 -0.00000
							CHANNELS 3 Zrotation Yrotation Xrotation
							JOINT RightHand
							{
								OFFSET -3.10567 -0.00000 0.00000
								CHANNELS 3 Zrotation Yrotation Xrotation
								JOINT RightFingerBase
								{
									OFFSET 0 0 0
									CHANNELS 3 Zrotation Yrotation Xrotation
									JOINT RightHandIndex1
									{
										OFFSET -0.49868 -0.00000 0.00000
										CHANNELS 3 Zrotation Yrotation Xrotation
										End Site
										{
											OFFSET -0.40204 -0.00000 0.00000
										}
									}
								}
								JOINT RThumb
								{
									OFFSET 0 0 0
									CHANNELS 3 Zrotation Yrotation Xrotation
									End Site
									{
										OFFSET -0.40818 -0.00000 0.40818
									}
								}
							}
						}
					}
				}
			}
		}
	}
}
MOTION
Frames: 7
Frame Time: 0.0227273
0.00 0.00 0.00 -93.9282 6.9044 -67.8666 0.0000 0.0000 0.0000 -170.3201 1.2215 159.9869 20.5630 19.9924 91.6464 4.9108 -50.0810 -50.5738 17.8057 19.8842 83.5724 0.0000 0.0000 0.0000 23.3535 18.1670 -47.0400 -15.7102 -19.5530 77.3671 -0.0558 5.7341 9.6273 -0.1889 2.7989 -7.7193 -5.1648 3.6790 6.3337 3.1199 4.7436 2.3735 5.7488 2.4097 -1.7639 2.3428 0.9999 -14.1131 18.1234 -3.9322 35.1322 6.7991 1.4238 15.1823 0.0000 -0.0000 0.0000 77.7481 -45.5802 -50.5591 17.0224 -26.8873 -4.0975 -0.0000 0.0000 -16.3504 -15.0773 19.0692 -5.0299 -7.1250 0.0000 -0.0000 -39.2426 45.1401 -0.1617 0.0000 -0.0000 0.0000 81.2717 35.3263 91.8105 -113.9015 57.7273 -80.5413 0.0000 0.0000 11.0038 -107.4885 16.1492 -138.5631 7.1250 -0.0000 -0.0000 -151.7878 22.3606 162.4499
0.00 0.00 0.00 -93.3821 7.2302 -67.3520 0.0000 0.0000 0.0000 -172.8116 -4.9349 173.1628 15.5627 19.5212 76.9259 7.2970 -68.7802 -65.4609 16.2291 19.6556 78.9136 0.0000 0.0000 0.0000 23.1280 17.6294 -43.9168 -13.2567 -18.8729 69.9208 -0.1849 4.0228 10.6196 -0.2310 3.0933 -8.5386 -4.9199 4.0511 6.9249 3.0121 5.2362 2.5264 5.4128 2.6602 -1.9704 2.9208 0.7918 -14.7387 18.8072 -4.7427 35.4006 6.9629 1.2858 15.6390 0.0000 -0.0000 0.0000 77.2851 -43.8354 -49.2595 16.9538 -26.7968 -4.0665 -0.0000 0.0000 -16.1797 -15.7038 19.5177 -5.3663 -7.1250 0.0000 -0.0000 -39.9972 45.4197 -0.4967 0.0000 -0.0000 0.0000 82.0020 36.5411 92.1276 -113.6222 57.7828 -80.3051 0.0000 0.0000 10.8143 -111.1834 13.8653 -148.2690 7.1250 -0.0000 -0.0000 -154.2426 13.1229 158.4050
0.00 0.00 0.00 -92.9624 7.4282 -66.9028 0.0000 0.0000 0.0000 -176.3921 -9.0984 -178.1053 12.7252 18.6807 68.2698 3.6660 -83.8927 -69.0363 14.3752 19.2239 73.3471 0.0000 0.0000 0.0000 22.6697 18.0586 -43.8656 -12.9307 -18.7570 68.9103 -0.1584 3.1975 9.3984 -0.2331 3.1072 -8.5773 -4.5751 4.3458 7.4265 2.9253 5.6364 2.5847 5.0496 2.8655 -2.1998 3.3025 0.5682 -15.0151 19.3082 -5.4251 35.6267 7.0768 1.1361 15.9676 -0.0000 -0.0000 0.0000 76.7356 -42.5368 -48.0599 16.9534 -26.7963 -4.0663 -0.0000 0.0000 -15.9662 -15.2795 19.0126 -5.0857 -7.1250 0.0000 -0.0000 -39.3672 45.0669 -0.0776 -0.0000 -0.0000 0.0000 82.4019 37.6200 92.5402 -113.3474 57.8367 -80.0725 0.0000 0.0000 10.5377 -112.9503 10.9892 -155.7644 7.1250 -0.0000 -0.0000 -154.9223 5.9346 155.0658
0.00 0.00 0.00 -92.2547 7.4226 -66.2708 0.0000 0.0000 0.0000 -13.8390 -31.5673 -77.0187 7.9417 16.0762 52.3524 176.7277 -31.0378 3.7989 11.8867 18.3424 65.6294 0.0000 0.0000 0.0000 22.4451 19.0578 -43.3139 -12.5930 -18.6302 67.8565 -0.1179 1.5801 7.2679 -0.2513 3.2255 -8.9073 -3.6207 4.8416 8.2375 2.8476 6.3524 2.5889 4.2850 3.2320 -2.6231 3.5687 0.1534 -15.0013 20.0073 -6.4003 35.8473 7.2535 0.8558 16.2932 -0.0000 0.0000 0.0000 75.5034 -41.1069 -46.3877 17.0220 -26.8868 -4.0973 -0.0000 0.0000 -15.1970 -14.0137 17.3440 -4.2551 -7.1250 0.0000 -0.0000 -37.4413 43.8608 1.2407 -0.0000 0.0000 0.0000 82.7613 39.2405 93.3119 -112.7384 57.9533 -79.5567 0.0000 0.0000 9.6360 -114.9050 7.7228 -163.8579 7.1250 -0.0000 -0.0000 -155.4530 -2.2474 151.8258
0.00 0.00 0.00 -91.6156 7.7525 -65.8093 0.0000 0.0000 0.0000 -13.8115 -31.9968 -74.6126 4.9844 13.3662 40.7551 177.9123 -34.3151 -13.2567 11.5192 18.1799 64.4565 0.0000 0.0000 0.0000 21.7681 20.3275 -44.1568 -13.4033 -18.9230 70.3737 -0.0466 0.6037 4.3462 -0.2991 3.5162 -9.7195 -3.2522 5.1676 8.7848 2.6944 6.8001 2.5597 3.8147 3.4577 -2.9417 3.7079 -0.1107 -15.0291 20.0819 -6.9196 36.0938 7.2214 0.6719 16.5234 -0.0000 0.0000 0.0000 74.3757 -40.4021 -45.6501 17.1205 -27.0163 -4.1419 -0.0000 0.0000 -14.4078 -13.9173 16.3220 -3.9836 -7.1250 0.0000 -0.0000 -36.8241 43.0236 2.1128 -0.0000 0.0000 0.0000 83.0984 40.5072 94.1735 -111.6723 58.1487 -78.6521 0.0000 0.0000 9.2900 -115.9758 5.6996 -168.4786 7.1250 -0.0000 -0.0000 -155.6021 -7.1041 150.0850
0.00 0.00 0.00 -90.6704 8.3610 -64.8588 0.0000 0.0000 0.0000 -13.9874 -32.4330 -69.9355 1.7821 8.3967 23.9255 -179.5882 -21.2237 -17.9820 9.7846 17.2870 58.7661 0.0000 0.0000 0.0000 20.6785 22.4759 -45.2156 -14.5130 -19.2623 73.7652 0.0027 -1.1471 0.3062 -0.2894 3.4596 -9.5609 -2.6403 5.6189 9.1075 2.3919 7.4377 2.5739 3.0512 3.7695 -3.0483 4.0954 -0.5221 -15.6008 19.5959 -7.7054 36.5933 6.8721 0.3707 17.0225 0.0000 -0.0000 0.0000 72.6703 -39.6636 -46.2215 17.3182 -27.2753 -4.2321 -0.0000 0.0000 -12.7439 -15.2657 14.8258 -3.9948 -7.1250 0.0000 -0.0000 -37.0872 41.6144 3.6791 0.0000 -0.0000 0.0000 83.7642 42.6471 95.7595 -109.5262 58.5092 -76.8256 0.0000 0.0000 9.2921 -69.0589 0.8124 -2.1219 7.1250 -0.0000 -0.0000 -31.1203 -26.8282 -16.0769
0.00 0.00 0.00 -90.5082 8.4857 -64.6683 0.0000 0.0000 0.0000 -14.0144 -32.4535 -69.6220 1.5898 7.9535 22.5729 -179.5798 -7.5372 17.2628 11.3793 18.1157 64.0073 0.0000 0.0000 0.0000 20.4498 22.7502 -45.2480 -14.5176 -19.2636 73.7792 0.0060 -1.4622 -0.0029 -0.2956 3.4962 -9.6634 -2.5850 5.6837 9.0824 2.3832 7.5298 2.5870 3.0029 3.8147 -3.0198 4.0824 -0.5794 -15.7027 19.5254 -7.7969 36.6534 6.8356 0.3262 17.0902 0.0000 0.0000 0.0000 72.2554 -39.6093 -46.5165 17.3508 -27.3179 -4.2471 -0.0000 0.0000 -12.4058 -15.3907 14.6158 -3.9734 -7.1250 0.0000 -0.0000 -37.0760 41.4243 3.8875 0.0000 0.0000 0.0000 83.8497 43.0077 96.0764 -109.1626 58.5660 -76.5154 0.0000 0.0000 9.2850 -67.1627 -1.4007 3.3221 7.1250 -0.0000 -0.0000 -31.5767 -32.0032 -11.6667
